<svg fill="" width="64px" height="64px" viewBox="-3.12 -3.12 30.24 30.24" id="send" data-name="Flat Line" xmlns="http://www.w3.org/2000/svg" class="icon flat-line" stroke=""><g id="SVGRepo_bgCarrier" stroke-width="0"><rect x="-3.12" y="-3.12" width="30.24" height="30.24" rx="15.12" fill="#FFFFFF" strokewidth="0"></rect></g><g id="SVGRepo_tracerCarrier" stroke-linecap="round" stroke-linejoin="round"></g><g id="SVGRepo_iconCarrier"><path id="secondary" d="M5.44,4.15l14.65,7a1,1,0,0,1,0,1.8l-14.65,7A1,1,0,0,1,4.1,18.54l2.72-6.13a1.06,1.06,0,0,0,0-.82L4.1,5.46A1,1,0,0,1,5.44,4.15Z" style="fill: #2ca9bc; stroke-width:0.9600000000000002;"></path><path id="primary" d="M7,12h4M4.1,5.46l2.72,6.13a1.06,1.06,0,0,1,0,.82L4.1,18.54a1,1,0,0,0,1.34,1.31l14.65-7a1,1,0,0,0,0-1.8L5.44,4.15A1,1,0,0,0,4.1,5.46Z" style="fill: none; stroke: #FFFFFF; stroke-linecap: round; stroke-linejoin: round; stroke-width:0.9600000000000002;"></path></g></svg>