<svg width="44" height="43" viewBox="0 0 44 43" fill="none" xmlns="http://www.w3.org/2000/svg">
<path d="M23.3438 5.375V10.75C23.3438 11.1064 23.2022 11.4482 22.9502 11.7002C22.6982 11.9522 22.3564 12.0938 22 12.0938C21.6436 12.0938 21.3018 11.9522 21.0498 11.7002C20.7978 11.4482 20.6562 11.1064 20.6562 10.75V5.375C20.6562 5.01862 20.7978 4.67683 21.0498 4.42483C21.3018 4.17282 21.6436 4.03125 22 4.03125C22.3564 4.03125 22.6982 4.17282 22.9502 4.42483C23.2022 4.67683 23.3438 5.01862 23.3438 5.375ZM29.6006 15.2432C29.7772 15.2431 29.9521 15.2082 30.1152 15.1404C30.2784 15.0727 30.4265 14.9735 30.5513 14.8484L34.3524 11.049C34.6046 10.7968 34.7462 10.4549 34.7462 10.0983C34.7462 9.7417 34.6046 9.39972 34.3524 9.14758C34.1003 8.89544 33.7583 8.75378 33.4017 8.75378C33.0451 8.75378 32.7032 8.89544 32.451 9.14758L28.6516 12.9487C28.4635 13.1365 28.3354 13.3759 28.2834 13.6366C28.2314 13.8972 28.2579 14.1674 28.3595 14.413C28.4611 14.6586 28.6332 14.8686 28.8541 15.0163C29.075 15.1641 29.3348 15.243 29.6006 15.2432ZM38.125 20.1562H32.75C32.3936 20.1562 32.0518 20.2978 31.7998 20.5498C31.5478 20.8018 31.4062 21.1436 31.4062 21.5C31.4062 21.8564 31.5478 22.1982 31.7998 22.4502C32.0518 22.7022 32.3936 22.8438 32.75 22.8438H38.125C38.4814 22.8438 38.8232 22.7022 39.0752 22.4502C39.3272 22.1982 39.4688 21.8564 39.4688 21.5C39.4688 21.1436 39.3272 20.8018 39.0752 20.5498C38.8232 20.2978 38.4814 20.1562 38.125 20.1562ZM30.5513 28.1516C30.2972 27.9102 29.9589 27.7776 29.6085 27.7821C29.2582 27.7866 28.9234 27.9278 28.6756 28.1756C28.4278 28.4234 28.2866 28.7582 28.2821 29.1085C28.2776 29.4589 28.4102 29.7972 28.6516 30.0513L32.451 33.8524C32.7032 34.1046 33.0451 34.2462 33.4017 34.2462C33.7583 34.2462 34.1003 34.1046 34.3524 33.8524C34.6046 33.6003 34.7462 33.2583 34.7462 32.9017C34.7462 32.5451 34.6046 32.2032 34.3524 31.951L30.5513 28.1516ZM22 30.9062C21.6436 30.9062 21.3018 31.0478 21.0498 31.2998C20.7978 31.5518 20.6562 31.8936 20.6562 32.25V37.625C20.6562 37.9814 20.7978 38.3232 21.0498 38.5752C21.3018 38.8272 21.6436 38.9688 22 38.9688C22.3564 38.9688 22.6982 38.8272 22.9502 38.5752C23.2022 38.3232 23.3438 37.9814 23.3438 37.625V32.25C23.3438 31.8936 23.2022 31.5518 22.9502 31.2998C22.6982 31.0478 22.3564 30.9062 22 30.9062ZM13.4487 28.1516L9.64758 31.951C9.39544 32.2032 9.25378 32.5451 9.25378 32.9017C9.25378 33.2583 9.39544 33.6003 9.64758 33.8524C9.89972 34.1046 10.2417 34.2462 10.5983 34.2462C10.9549 34.2462 11.2968 34.1046 11.549 33.8524L15.3484 30.0513C15.5898 29.7972 15.7224 29.4589 15.7179 29.1085C15.7134 28.7582 15.5722 28.4234 15.3244 28.1756C15.0766 27.9278 14.7418 27.7866 14.3915 27.7821C14.0411 27.7776 13.7028 27.9102 13.4487 28.1516ZM12.5938 21.5C12.5938 21.1436 12.4522 20.8018 12.2002 20.5498C11.9482 20.2978 11.6064 20.1562 11.25 20.1562H5.875C5.51862 20.1562 5.17683 20.2978 4.92483 20.5498C4.67282 20.8018 4.53125 21.1436 4.53125 21.5C4.53125 21.8564 4.67282 22.1982 4.92483 22.4502C5.17683 22.7022 5.51862 22.8438 5.875 22.8438H11.25C11.6064 22.8438 11.9482 22.7022 12.2002 22.4502C12.4522 22.1982 12.5938 21.8564 12.5938 21.5ZM11.549 9.14758C11.2968 8.89544 10.9549 8.75378 10.5983 8.75378C10.2417 8.75378 9.89972 8.89544 9.64758 9.14758C9.39544 9.39972 9.25378 9.7417 9.25378 10.0983C9.25378 10.4549 9.39544 10.7968 9.64758 11.049L13.4487 14.8484C13.7028 15.0898 14.0411 15.2224 14.3915 15.2179C14.7418 15.2134 15.0766 15.0722 15.3244 14.8244C15.5722 14.5766 15.7134 14.2418 15.7179 13.8915C15.7224 13.5411 15.5898 13.2028 15.3484 12.9487L11.549 9.14758Z" fill="#4C12A1"/>
</svg>
